<mxfile host="app.diagrams.net" agent="Mozilla/5.0 (Windows NT 10.0; Win64; x64) AppleWebKit/537.36 (KHTML, like Gecko) Chrome/137.0.0.0 Safari/537.36" version="28.2.5">
  <diagram name="หน้า-1" id="QQDbDeyJ3xn2WYjESz6V">
    <mxGraphModel dx="1426" dy="743" grid="1" gridSize="10" guides="1" tooltips="1" connect="1" arrows="1" fold="1" page="1" pageScale="1" pageWidth="1654" pageHeight="2336" math="0" shadow="0">
      <root>
        <mxCell id="0" />
        <mxCell id="1" parent="0" />
        <mxCell id="2" value="Start" style="ellipse;whiteSpace=wrap;html=1;" vertex="1" parent="1">
          <mxGeometry x="360" y="10" width="130" height="50" as="geometry" />
        </mxCell>
        <mxCell id="3" value="เตรียมตัวแปร&#xa;Name (ตัวอักษร), Age = 0 (จำนวนเต็ม)" style="whiteSpace=wrap;html=1;" vertex="1" parent="1">
          <mxGeometry x="270" y="90" width="310" height="60" as="geometry" />
        </mxCell>
        <mxCell id="4" value="แสดงข้อความ&#xa;Enter your name:" style="shape=parallelogram;perimeter=parallelogramPerimeter;whiteSpace=wrap;html=1;" vertex="1" parent="1">
          <mxGeometry x="300" y="180" width="250" height="60" as="geometry" />
        </mxCell>
        <mxCell id="5" value="รับค่า Name (สตริงไม่เว้นวรรค)" style="shape=parallelogram;perimeter=parallelogramPerimeter;whiteSpace=wrap;html=1;" vertex="1" parent="1">
          <mxGeometry x="300" y="280" width="250" height="60" as="geometry" />
        </mxCell>
        <mxCell id="6" value="แสดงข้อความ&#xa;Enter your age:" style="shape=parallelogram;perimeter=parallelogramPerimeter;whiteSpace=wrap;html=1;" vertex="1" parent="1">
          <mxGeometry x="300" y="370" width="250" height="60" as="geometry" />
        </mxCell>
        <mxCell id="7" value="รับค่า Age (จำนวนเต็ม)" style="shape=parallelogram;perimeter=parallelogramPerimeter;whiteSpace=wrap;html=1;" vertex="1" parent="1">
          <mxGeometry x="300" y="460" width="250" height="60" as="geometry" />
        </mxCell>
        <mxCell id="8" value="แสดงบรรทัดคั่น&#xa;- - - - - -" style="shape=parallelogram;perimeter=parallelogramPerimeter;whiteSpace=wrap;html=1;" vertex="1" parent="1">
          <mxGeometry x="300" y="540" width="250" height="60" as="geometry" />
        </mxCell>
        <mxCell id="9" value="แสดงข้อความ&#xa;Hello {Name}" style="shape=parallelogram;perimeter=parallelogramPerimeter;whiteSpace=wrap;html=1;" vertex="1" parent="1">
          <mxGeometry x="300" y="630" width="250" height="60" as="geometry" />
        </mxCell>
        <mxCell id="10" value="แสดงข้อความ&#xa;Age = {Age}" style="shape=parallelogram;perimeter=parallelogramPerimeter;whiteSpace=wrap;html=1;" vertex="1" parent="1">
          <mxGeometry x="300" y="720" width="250" height="60" as="geometry" />
        </mxCell>
        <mxCell id="11" value="Stop" style="ellipse;whiteSpace=wrap;html=1;" vertex="1" parent="1">
          <mxGeometry x="360" y="820" width="130" height="50" as="geometry" />
        </mxCell>
        <mxCell id="12" style="endArrow=classic;orthogonal=1;rounded=0;" edge="1" parent="1" source="2" target="3">
          <mxGeometry relative="1" as="geometry" />
        </mxCell>
        <mxCell id="13" style="endArrow=classic;orthogonal=1;rounded=0;" edge="1" parent="1" source="3" target="4">
          <mxGeometry relative="1" as="geometry" />
        </mxCell>
        <mxCell id="14" style="endArrow=classic;orthogonal=1;rounded=0;" edge="1" parent="1" source="4" target="5">
          <mxGeometry relative="1" as="geometry" />
        </mxCell>
        <mxCell id="15" style="endArrow=classic;orthogonal=1;rounded=0;" edge="1" parent="1" source="5" target="6">
          <mxGeometry relative="1" as="geometry" />
        </mxCell>
        <mxCell id="16" style="endArrow=classic;orthogonal=1;rounded=0;" edge="1" parent="1" source="6" target="7">
          <mxGeometry relative="1" as="geometry" />
        </mxCell>
        <mxCell id="17" style="endArrow=classic;orthogonal=1;rounded=0;" edge="1" parent="1" source="7" target="8">
          <mxGeometry relative="1" as="geometry" />
        </mxCell>
        <mxCell id="18" style="endArrow=classic;orthogonal=1;rounded=0;" edge="1" parent="1" source="8" target="9">
          <mxGeometry relative="1" as="geometry" />
        </mxCell>
        <mxCell id="19" style="endArrow=classic;orthogonal=1;rounded=0;" edge="1" parent="1" source="9" target="10">
          <mxGeometry relative="1" as="geometry" />
        </mxCell>
        <mxCell id="20" style="endArrow=classic;orthogonal=1;rounded=0;" edge="1" parent="1" source="10" target="11">
          <mxGeometry relative="1" as="geometry" />
        </mxCell>
      </root>
    </mxGraphModel>
  </diagram>
</mxfile>
